<mxfile host="app.diagrams.net" modified="2021-03-08T12:53:22.994Z" agent="5.0 (Macintosh; Intel Mac OS X 10_15_7) AppleWebKit/537.36 (KHTML, like Gecko) Chrome/88.0.4324.192 Safari/537.36" etag="SBxAzZL3qHnSDHM3Sh5F" version="14.2.9" type="github">
  <diagram id="tt5JFjFHPFmkW61CNUUX" name="Page-1">
    <mxGraphModel dx="2253" dy="737" grid="1" gridSize="10" guides="1" tooltips="1" connect="1" arrows="1" fold="1" page="1" pageScale="1" pageWidth="827" pageHeight="1169" math="0" shadow="0">
      <root>
        <mxCell id="0" />
        <mxCell id="1" parent="0" />
        <mxCell id="0Mp4NktpAigXA8W8LPm4-13" value="" style="rounded=0;whiteSpace=wrap;html=1;" vertex="1" parent="1">
          <mxGeometry x="-90" y="60" width="970" height="760" as="geometry" />
        </mxCell>
        <mxCell id="qJTZwnVhEVgrwr9GslrN-109" value="" style="rounded=0;whiteSpace=wrap;html=1;strokeColor=#FF9933;strokeWidth=2;fillColor=#FFFFFF;" parent="1" vertex="1">
          <mxGeometry x="250" y="1230" width="1540" height="440" as="geometry" />
        </mxCell>
        <mxCell id="qJTZwnVhEVgrwr9GslrN-70" value="" style="rounded=0;whiteSpace=wrap;html=1;strokeColor=#FF9933;strokeWidth=1;fillColor=#FFFFFF;" parent="1" vertex="1">
          <mxGeometry x="960" y="120" width="720" height="570" as="geometry" />
        </mxCell>
        <mxCell id="qJTZwnVhEVgrwr9GslrN-68" value="&lt;meta charset=&quot;utf-8&quot;&gt;&lt;span style=&quot;color: rgb(0, 0, 0); font-family: helvetica; font-size: 15px; font-style: normal; font-weight: 400; letter-spacing: normal; text-align: center; text-indent: 0px; text-transform: none; word-spacing: 0px; background-color: rgb(248, 249, 250); display: inline; float: none;&quot;&gt;新 paddle.save、load&lt;/span&gt;" style="rounded=0;whiteSpace=wrap;html=1;strokeWidth=1;fillColor=#FFFFFF;" parent="1" vertex="1">
          <mxGeometry x="1020" y="160" width="580" height="400" as="geometry" />
        </mxCell>
        <mxCell id="qJTZwnVhEVgrwr9GslrN-66" value="" style="rounded=0;whiteSpace=wrap;html=1;strokeWidth=1;fillColor=#b1ddf0;strokeColor=#10739e;" parent="1" vertex="1">
          <mxGeometry x="1050" y="230" width="520" height="310" as="geometry" />
        </mxCell>
        <mxCell id="FwvYShrbWAnCKhNYx9Qg-18" value="" style="rounded=0;whiteSpace=wrap;html=1;fillColor=#f5f5f5;strokeColor=#666666;fontColor=#333333;" parent="1" vertex="1">
          <mxGeometry x="270" y="120" width="570" height="440" as="geometry" />
        </mxCell>
        <mxCell id="qJTZwnVhEVgrwr9GslrN-50" value="" style="rounded=0;whiteSpace=wrap;html=1;dashed=1;strokeColor=#005700;strokeWidth=4;fontColor=#ffffff;fillColor=none;" parent="1" vertex="1">
          <mxGeometry x="580" y="70" width="280" height="740" as="geometry" />
        </mxCell>
        <mxCell id="qJTZwnVhEVgrwr9GslrN-44" value="" style="rounded=0;whiteSpace=wrap;html=1;strokeColor=#FF9933;strokeWidth=4;fillColor=none;dashed=1;" parent="1" vertex="1">
          <mxGeometry x="10" y="240" width="190" height="190" as="geometry" />
        </mxCell>
        <mxCell id="qJTZwnVhEVgrwr9GslrN-12" value="" style="rounded=0;whiteSpace=wrap;html=1;fillColor=#f5f5f5;strokeColor=#666666;fontColor=#333333;" parent="1" vertex="1">
          <mxGeometry x="270" y="623.21" width="250" height="186.79" as="geometry" />
        </mxCell>
        <mxCell id="FwvYShrbWAnCKhNYx9Qg-17" value="" style="rounded=1;whiteSpace=wrap;html=1;fillColor=#fff2cc;strokeColor=#d6b656;" parent="1" vertex="1">
          <mxGeometry x="300" y="180" width="200" height="280" as="geometry" />
        </mxCell>
        <mxCell id="FwvYShrbWAnCKhNYx9Qg-24" value="" style="rounded=1;whiteSpace=wrap;html=1;fillColor=#d5e8d4;strokeColor=#82b366;" parent="1" vertex="1">
          <mxGeometry x="600" y="180" width="220" height="340" as="geometry" />
        </mxCell>
        <mxCell id="FwvYShrbWAnCKhNYx9Qg-2" value="&lt;font style=&quot;font-size: 14px&quot;&gt;layer.state_dict()-&amp;gt;dict&lt;/font&gt;" style="rounded=1;whiteSpace=wrap;html=1;fillColor=#1ba1e2;strokeColor=#006EAF;fontColor=#ffffff;" parent="1" vertex="1">
          <mxGeometry x="320" y="260" width="160" height="40" as="geometry" />
        </mxCell>
        <mxCell id="FwvYShrbWAnCKhNYx9Qg-10" value="&lt;font style=&quot;font-size: 14px&quot;&gt;program.list_vars()-&amp;gt;dict&lt;/font&gt;" style="rounded=1;whiteSpace=wrap;html=1;fillColor=#1ba1e2;strokeColor=#006EAF;fontColor=#ffffff;" parent="1" vertex="1">
          <mxGeometry x="320" y="330" width="160" height="40" as="geometry" />
        </mxCell>
        <mxCell id="FwvYShrbWAnCKhNYx9Qg-11" value="&lt;font style=&quot;font-size: 13px&quot;&gt;program，但是paddle.static.load没有使用&lt;/font&gt;" style="rounded=1;whiteSpace=wrap;html=1;fillColor=#1ba1e2;strokeColor=#006EAF;fontColor=#ffffff;" parent="1" vertex="1">
          <mxGeometry x="320" y="400" width="160" height="40" as="geometry" />
        </mxCell>
        <mxCell id="FwvYShrbWAnCKhNYx9Qg-12" value="&lt;font style=&quot;font-size: 13px&quot;&gt;每个var一个文件&lt;/font&gt;" style="rounded=1;whiteSpace=wrap;html=1;fillColor=#1ba1e2;strokeColor=#006EAF;fontColor=#ffffff;" parent="1" vertex="1">
          <mxGeometry x="320" y="688.21" width="160" height="40" as="geometry" />
        </mxCell>
        <mxCell id="FwvYShrbWAnCKhNYx9Qg-13" value="&lt;font style=&quot;font-size: 13px&quot;&gt;所有var保存成一个文件&lt;/font&gt;" style="rounded=1;whiteSpace=wrap;html=1;fillColor=#1ba1e2;strokeColor=#006EAF;fontColor=#ffffff;" parent="1" vertex="1">
          <mxGeometry x="320" y="748.21" width="160" height="40" as="geometry" />
        </mxCell>
        <mxCell id="FwvYShrbWAnCKhNYx9Qg-15" value="c++二进制格式" style="rounded=1;whiteSpace=wrap;html=1;fillColor=#f5f5f5;fontColor=#333333;strokeColor=none;" parent="1" vertex="1">
          <mxGeometry x="330" y="638.21" width="140" height="35" as="geometry" />
        </mxCell>
        <mxCell id="FwvYShrbWAnCKhNYx9Qg-19" value="&lt;font style=&quot;font-size: 13px&quot;&gt;动态图var list/dict嵌套的对象:&lt;br&gt;[state_dict1, state_dict2]&lt;/font&gt;" style="rounded=1;whiteSpace=wrap;html=1;fillColor=#1ba1e2;strokeColor=#006EAF;fontColor=#ffffff;" parent="1" vertex="1">
          <mxGeometry x="620" y="265" width="180" height="40" as="geometry" />
        </mxCell>
        <mxCell id="FwvYShrbWAnCKhNYx9Qg-22" value="pickle格式：&lt;br&gt;var-&amp;gt;numpy.ndarray" style="rounded=1;whiteSpace=wrap;html=1;fillColor=#fff2cc;strokeColor=none;" parent="1" vertex="1">
          <mxGeometry x="320" y="200" width="160" height="40" as="geometry" />
        </mxCell>
        <mxCell id="FwvYShrbWAnCKhNYx9Qg-23" value="&lt;font style=&quot;font-size: 14px&quot;&gt;包含program的list、dict等&lt;/font&gt;" style="rounded=1;whiteSpace=wrap;html=1;fillColor=#1ba1e2;strokeColor=#006EAF;fontColor=#ffffff;" parent="1" vertex="1">
          <mxGeometry x="620" y="400" width="180" height="40" as="geometry" />
        </mxCell>
        <mxCell id="FwvYShrbWAnCKhNYx9Qg-26" value="使用pickle的persistent_id/load接口" style="rounded=1;whiteSpace=wrap;html=1;fillColor=#d5e8d4;strokeColor=none;" parent="1" vertex="1">
          <mxGeometry x="620" y="200" width="160" height="40" as="geometry" />
        </mxCell>
        <mxCell id="FwvYShrbWAnCKhNYx9Qg-27" value="pickle格式" style="rounded=1;whiteSpace=wrap;html=1;fillColor=#f5f5f5;fontColor=#333333;strokeColor=none;" parent="1" vertex="1">
          <mxGeometry x="480" y="140" width="140" height="35" as="geometry" />
        </mxCell>
        <mxCell id="FwvYShrbWAnCKhNYx9Qg-35" value="&lt;font style=&quot;font-size: 14px&quot;&gt;paddle.static.save/load&lt;/font&gt;" style="ellipse;whiteSpace=wrap;html=1;fillColor=#f0a30a;strokeColor=#BD7000;fontColor=#ffffff;" parent="1" vertex="1">
          <mxGeometry x="30" y="360" width="150" height="50" as="geometry" />
        </mxCell>
        <mxCell id="FwvYShrbWAnCKhNYx9Qg-36" value="&lt;font style=&quot;font-size: 14px&quot;&gt;旧 paddle.save/load&lt;/font&gt;" style="ellipse;whiteSpace=wrap;html=1;fillColor=#f0a30a;strokeColor=#BD7000;fontColor=#ffffff;" parent="1" vertex="1">
          <mxGeometry x="30" y="255" width="150" height="50" as="geometry" />
        </mxCell>
        <mxCell id="FwvYShrbWAnCKhNYx9Qg-37" value="&lt;font style=&quot;font-size: 14px&quot;&gt;save/load_vars&lt;/font&gt;" style="ellipse;whiteSpace=wrap;html=1;fillColor=#f0a30a;strokeColor=#BD7000;fontColor=#ffffff;" parent="1" vertex="1">
          <mxGeometry x="30" y="710" width="150" height="50" as="geometry" />
        </mxCell>
        <mxCell id="FwvYShrbWAnCKhNYx9Qg-40" value="" style="endArrow=classic;startArrow=classic;html=1;exitX=1;exitY=0.5;exitDx=0;exitDy=0;entryX=0;entryY=0.5;entryDx=0;entryDy=0;strokeWidth=2;fillColor=#008a00;strokeColor=#005700;" parent="1" source="FwvYShrbWAnCKhNYx9Qg-36" target="FwvYShrbWAnCKhNYx9Qg-2" edge="1">
          <mxGeometry width="50" height="50" relative="1" as="geometry">
            <mxPoint x="170" y="440" as="sourcePoint" />
            <mxPoint x="320" y="300" as="targetPoint" />
          </mxGeometry>
        </mxCell>
        <mxCell id="qJTZwnVhEVgrwr9GslrN-21" value="save/load" style="edgeLabel;html=1;align=center;verticalAlign=middle;resizable=0;points=[];" parent="FwvYShrbWAnCKhNYx9Qg-40" vertex="1" connectable="0">
          <mxGeometry x="-0.1714" y="1" relative="1" as="geometry">
            <mxPoint as="offset" />
          </mxGeometry>
        </mxCell>
        <mxCell id="FwvYShrbWAnCKhNYx9Qg-41" value="" style="endArrow=classic;startArrow=classic;html=1;exitX=1;exitY=0;exitDx=0;exitDy=0;entryX=0;entryY=0.5;entryDx=0;entryDy=0;strokeWidth=2;fillColor=#008a00;strokeColor=#005700;" parent="1" source="FwvYShrbWAnCKhNYx9Qg-35" target="FwvYShrbWAnCKhNYx9Qg-10" edge="1">
          <mxGeometry width="50" height="50" relative="1" as="geometry">
            <mxPoint x="130" y="430" as="sourcePoint" />
            <mxPoint x="320" y="360" as="targetPoint" />
          </mxGeometry>
        </mxCell>
        <mxCell id="qJTZwnVhEVgrwr9GslrN-22" value="save/load" style="edgeLabel;html=1;align=center;verticalAlign=middle;resizable=0;points=[];" parent="FwvYShrbWAnCKhNYx9Qg-41" vertex="1" connectable="0">
          <mxGeometry x="-0.0246" relative="1" as="geometry">
            <mxPoint as="offset" />
          </mxGeometry>
        </mxCell>
        <mxCell id="FwvYShrbWAnCKhNYx9Qg-42" value="" style="endArrow=classic;html=1;exitX=1;exitY=1;exitDx=0;exitDy=0;entryX=0;entryY=0.5;entryDx=0;entryDy=0;strokeWidth=2;fillColor=#fa6800;strokeColor=#C73500;" parent="1" source="FwvYShrbWAnCKhNYx9Qg-35" target="FwvYShrbWAnCKhNYx9Qg-11" edge="1">
          <mxGeometry width="50" height="50" relative="1" as="geometry">
            <mxPoint x="100" y="420" as="sourcePoint" />
            <mxPoint x="320" y="420" as="targetPoint" />
          </mxGeometry>
        </mxCell>
        <mxCell id="qJTZwnVhEVgrwr9GslrN-23" value="save" style="edgeLabel;html=1;align=center;verticalAlign=middle;resizable=0;points=[];" parent="FwvYShrbWAnCKhNYx9Qg-42" vertex="1" connectable="0">
          <mxGeometry x="0.0492" relative="1" as="geometry">
            <mxPoint as="offset" />
          </mxGeometry>
        </mxCell>
        <mxCell id="FwvYShrbWAnCKhNYx9Qg-43" value="" style="endArrow=classic;startArrow=classic;html=1;entryX=0;entryY=0.5;entryDx=0;entryDy=0;exitX=1;exitY=0;exitDx=0;exitDy=0;strokeWidth=2;fillColor=#008a00;strokeColor=#005700;" parent="1" source="FwvYShrbWAnCKhNYx9Qg-37" target="FwvYShrbWAnCKhNYx9Qg-12" edge="1">
          <mxGeometry width="50" height="50" relative="1" as="geometry">
            <mxPoint x="210" y="758.21" as="sourcePoint" />
            <mxPoint x="260" y="708.21" as="targetPoint" />
          </mxGeometry>
        </mxCell>
        <mxCell id="qJTZwnVhEVgrwr9GslrN-24" value="save/load" style="edgeLabel;html=1;align=center;verticalAlign=middle;resizable=0;points=[];" parent="FwvYShrbWAnCKhNYx9Qg-43" vertex="1" connectable="0">
          <mxGeometry x="0.0496" y="1" relative="1" as="geometry">
            <mxPoint as="offset" />
          </mxGeometry>
        </mxCell>
        <mxCell id="FwvYShrbWAnCKhNYx9Qg-44" value="save/load" style="endArrow=classic;startArrow=classic;html=1;entryX=0;entryY=0.5;entryDx=0;entryDy=0;exitX=1;exitY=1;exitDx=0;exitDy=0;strokeWidth=2;fillColor=#008a00;strokeColor=#005700;" parent="1" source="FwvYShrbWAnCKhNYx9Qg-37" target="FwvYShrbWAnCKhNYx9Qg-13" edge="1">
          <mxGeometry width="50" height="50" relative="1" as="geometry">
            <mxPoint x="190" y="798.21" as="sourcePoint" />
            <mxPoint x="240" y="748.21" as="targetPoint" />
          </mxGeometry>
        </mxCell>
        <mxCell id="FwvYShrbWAnCKhNYx9Qg-46" value="&lt;font style=&quot;font-size: 16px&quot;&gt;新 paddle.save/load&lt;/font&gt;" style="ellipse;whiteSpace=wrap;html=1;fillColor=#60a917;strokeColor=#2D7600;fontColor=#ffffff;" parent="1" vertex="1">
          <mxGeometry x="630" y="666.4200000000001" width="160" height="81.79" as="geometry" />
        </mxCell>
        <mxCell id="qJTZwnVhEVgrwr9GslrN-5" value="" style="endArrow=classic;html=1;entryX=0;entryY=0;entryDx=0;entryDy=0;exitX=0.5;exitY=1;exitDx=0;exitDy=0;strokeWidth=2;fillColor=#fa6800;strokeColor=#C73500;" parent="1" source="FwvYShrbWAnCKhNYx9Qg-17" target="FwvYShrbWAnCKhNYx9Qg-46" edge="1">
          <mxGeometry relative="1" as="geometry">
            <mxPoint x="400" y="470" as="sourcePoint" />
            <mxPoint x="630" y="510" as="targetPoint" />
          </mxGeometry>
        </mxCell>
        <mxCell id="qJTZwnVhEVgrwr9GslrN-6" value="load兼容" style="edgeLabel;resizable=0;html=1;align=center;verticalAlign=middle;" parent="qJTZwnVhEVgrwr9GslrN-5" connectable="0" vertex="1">
          <mxGeometry relative="1" as="geometry" />
        </mxCell>
        <mxCell id="qJTZwnVhEVgrwr9GslrN-7" value="" style="endArrow=classic;startArrow=classic;html=1;entryX=0.5;entryY=1;entryDx=0;entryDy=0;exitX=0.5;exitY=0;exitDx=0;exitDy=0;strokeWidth=2;fillColor=#008a00;strokeColor=#005700;" parent="1" source="FwvYShrbWAnCKhNYx9Qg-46" target="FwvYShrbWAnCKhNYx9Qg-24" edge="1">
          <mxGeometry width="50" height="50" relative="1" as="geometry">
            <mxPoint x="680" y="570" as="sourcePoint" />
            <mxPoint x="730" y="520" as="targetPoint" />
          </mxGeometry>
        </mxCell>
        <mxCell id="qJTZwnVhEVgrwr9GslrN-26" value="save/load" style="edgeLabel;html=1;align=center;verticalAlign=middle;resizable=0;points=[];" parent="qJTZwnVhEVgrwr9GslrN-7" vertex="1" connectable="0">
          <mxGeometry x="0.2033" relative="1" as="geometry">
            <mxPoint as="offset" />
          </mxGeometry>
        </mxCell>
        <mxCell id="qJTZwnVhEVgrwr9GslrN-8" value="" style="endArrow=classic;startArrow=classic;html=1;entryX=0;entryY=0.5;entryDx=0;entryDy=0;exitX=1;exitY=0.5;exitDx=0;exitDy=0;strokeWidth=2;fillColor=#008a00;strokeColor=#005700;" parent="1" source="FwvYShrbWAnCKhNYx9Qg-12" target="FwvYShrbWAnCKhNYx9Qg-46" edge="1">
          <mxGeometry width="50" height="50" relative="1" as="geometry">
            <mxPoint x="460" y="628.21" as="sourcePoint" />
            <mxPoint x="510" y="578.21" as="targetPoint" />
          </mxGeometry>
        </mxCell>
        <mxCell id="qJTZwnVhEVgrwr9GslrN-25" value="save/load" style="edgeLabel;html=1;align=center;verticalAlign=middle;resizable=0;points=[];" parent="qJTZwnVhEVgrwr9GslrN-8" vertex="1" connectable="0">
          <mxGeometry x="0.0216" y="4" relative="1" as="geometry">
            <mxPoint as="offset" />
          </mxGeometry>
        </mxCell>
        <mxCell id="qJTZwnVhEVgrwr9GslrN-10" value="&lt;font style=&quot;font-size: 13px&quot;&gt;静态图var list/dict嵌套的对象:&lt;br&gt;[state_dict1, state_dict2]&lt;/font&gt;" style="rounded=1;whiteSpace=wrap;html=1;fillColor=#1ba1e2;strokeColor=#006EAF;fontColor=#ffffff;" parent="1" vertex="1">
          <mxGeometry x="620" y="330" width="180" height="40" as="geometry" />
        </mxCell>
        <mxCell id="qJTZwnVhEVgrwr9GslrN-13" value="" style="shape=flexArrow;endArrow=classic;html=1;entryX=0;entryY=0.5;entryDx=0;entryDy=0;exitX=1;exitY=0.5;exitDx=0;exitDy=0;endWidth=14;endSize=4.67;" parent="1" source="FwvYShrbWAnCKhNYx9Qg-10" target="qJTZwnVhEVgrwr9GslrN-10" edge="1">
          <mxGeometry width="50" height="50" relative="1" as="geometry">
            <mxPoint x="410" y="410" as="sourcePoint" />
            <mxPoint x="460" y="360" as="targetPoint" />
          </mxGeometry>
        </mxCell>
        <mxCell id="qJTZwnVhEVgrwr9GslrN-14" value="子集" style="edgeLabel;html=1;align=center;verticalAlign=middle;resizable=0;points=[];" parent="qJTZwnVhEVgrwr9GslrN-13" vertex="1" connectable="0">
          <mxGeometry x="-0.2667" y="1" relative="1" as="geometry">
            <mxPoint as="offset" />
          </mxGeometry>
        </mxCell>
        <mxCell id="qJTZwnVhEVgrwr9GslrN-17" value="" style="shape=flexArrow;endArrow=classic;html=1;entryX=0;entryY=0.5;entryDx=0;entryDy=0;exitX=1;exitY=0.5;exitDx=0;exitDy=0;endWidth=14;endSize=4.67;" parent="1" target="FwvYShrbWAnCKhNYx9Qg-19" edge="1">
          <mxGeometry width="50" height="50" relative="1" as="geometry">
            <mxPoint x="480" y="284.5" as="sourcePoint" />
            <mxPoint x="600" y="284.5" as="targetPoint" />
          </mxGeometry>
        </mxCell>
        <mxCell id="qJTZwnVhEVgrwr9GslrN-18" value="子集" style="edgeLabel;html=1;align=center;verticalAlign=middle;resizable=0;points=[];" parent="qJTZwnVhEVgrwr9GslrN-17" vertex="1" connectable="0">
          <mxGeometry x="-0.2667" y="1" relative="1" as="geometry">
            <mxPoint as="offset" />
          </mxGeometry>
        </mxCell>
        <mxCell id="qJTZwnVhEVgrwr9GslrN-19" value="" style="shape=flexArrow;endArrow=classic;html=1;entryX=0;entryY=0.5;entryDx=0;entryDy=0;exitX=1;exitY=0.5;exitDx=0;exitDy=0;endWidth=14;endSize=4.67;" parent="1" target="FwvYShrbWAnCKhNYx9Qg-23" edge="1">
          <mxGeometry width="50" height="50" relative="1" as="geometry">
            <mxPoint x="480" y="420" as="sourcePoint" />
            <mxPoint x="600" y="420" as="targetPoint" />
          </mxGeometry>
        </mxCell>
        <mxCell id="qJTZwnVhEVgrwr9GslrN-20" value="子集" style="edgeLabel;html=1;align=center;verticalAlign=middle;resizable=0;points=[];" parent="qJTZwnVhEVgrwr9GslrN-19" vertex="1" connectable="0">
          <mxGeometry x="-0.2667" y="1" relative="1" as="geometry">
            <mxPoint as="offset" />
          </mxGeometry>
        </mxCell>
        <mxCell id="qJTZwnVhEVgrwr9GslrN-27" value="" style="edgeStyle=segmentEdgeStyle;endArrow=classic;html=1;fillColor=#e51400;strokeColor=#B20000;strokeWidth=6;entryX=0;entryY=0.5;entryDx=0;entryDy=0;" parent="1" source="FwvYShrbWAnCKhNYx9Qg-24" target="qJTZwnVhEVgrwr9GslrN-44" edge="1">
          <mxGeometry width="50" height="50" relative="1" as="geometry">
            <mxPoint x="577" y="489" as="sourcePoint" />
            <mxPoint x="3" y="335" as="targetPoint" />
            <Array as="points">
              <mxPoint x="-50" y="489" />
              <mxPoint x="-50" y="335" />
            </Array>
          </mxGeometry>
        </mxCell>
        <mxCell id="qJTZwnVhEVgrwr9GslrN-29" value="&lt;font style=&quot;font-size: 15px&quot;&gt;无法load&lt;/font&gt;" style="text;html=1;align=center;verticalAlign=middle;resizable=0;points=[];autosize=1;" parent="1" vertex="1">
          <mxGeometry x="-40" y="460" width="70" height="20" as="geometry" />
        </mxCell>
        <mxCell id="qJTZwnVhEVgrwr9GslrN-51" value="&lt;font style=&quot;font-size: 18px&quot;&gt;修改的内容&lt;/font&gt;" style="text;html=1;align=center;verticalAlign=middle;whiteSpace=wrap;rounded=0;dashed=1;" parent="1" vertex="1">
          <mxGeometry x="665" y="80" width="110" height="20" as="geometry" />
        </mxCell>
        <mxCell id="qJTZwnVhEVgrwr9GslrN-52" value="" style="endArrow=classic;startArrow=classic;html=1;strokeWidth=4;exitX=1;exitY=0.5;exitDx=0;exitDy=0;strokeColor=#A50040;fillColor=#d80073;" parent="1" source="FwvYShrbWAnCKhNYx9Qg-13" target="FwvYShrbWAnCKhNYx9Qg-46" edge="1">
          <mxGeometry width="50" height="50" relative="1" as="geometry">
            <mxPoint x="550" y="800" as="sourcePoint" />
            <mxPoint x="600" y="750" as="targetPoint" />
          </mxGeometry>
        </mxCell>
        <mxCell id="qJTZwnVhEVgrwr9GslrN-53" value="&lt;font style=&quot;font-size: 12px&quot;&gt;&lt;b&gt;代支持&lt;/b&gt;&lt;/font&gt;" style="edgeLabel;html=1;align=center;verticalAlign=middle;resizable=0;points=[];" parent="qJTZwnVhEVgrwr9GslrN-52" vertex="1" connectable="0">
          <mxGeometry x="-0.1766" y="2" relative="1" as="geometry">
            <mxPoint as="offset" />
          </mxGeometry>
        </mxCell>
        <mxCell id="qJTZwnVhEVgrwr9GslrN-55" value="&lt;font style=&quot;font-size: 14px&quot;&gt;包含Layer的list、dict等&lt;/font&gt;" style="rounded=1;whiteSpace=wrap;html=1;fillColor=#1ba1e2;strokeColor=#006EAF;fontColor=#ffffff;" parent="1" vertex="1">
          <mxGeometry x="620" y="470" width="180" height="40" as="geometry" />
        </mxCell>
        <mxCell id="qJTZwnVhEVgrwr9GslrN-59" value="&lt;font style=&quot;font-size: 16px&quot;&gt;paddle.static.save/load&lt;/font&gt;" style="ellipse;whiteSpace=wrap;html=1;strokeColor=#d79b00;strokeWidth=1;fillColor=#ffe6cc;" parent="1" vertex="1">
          <mxGeometry x="1090" y="270" width="190" height="90" as="geometry" />
        </mxCell>
        <mxCell id="qJTZwnVhEVgrwr9GslrN-61" value="&lt;font style=&quot;font-size: 16px&quot;&gt;save/load_vars&lt;/font&gt;" style="ellipse;whiteSpace=wrap;html=1;strokeColor=#d79b00;strokeWidth=1;fillColor=#ffe6cc;" parent="1" vertex="1">
          <mxGeometry x="1330" y="280" width="190" height="80" as="geometry" />
        </mxCell>
        <mxCell id="qJTZwnVhEVgrwr9GslrN-62" value="&lt;font style=&quot;font-size: 16px&quot;&gt;旧 paddle.save/load&lt;/font&gt;" style="ellipse;whiteSpace=wrap;html=1;strokeColor=#d79b00;strokeWidth=1;fillColor=#ffe6cc;" parent="1" vertex="1">
          <mxGeometry x="1090" y="390" width="180" height="80" as="geometry" />
        </mxCell>
        <mxCell id="qJTZwnVhEVgrwr9GslrN-64" value="&lt;font style=&quot;font-size: 16px&quot;&gt;var list，var dict，&lt;br&gt;layer，program&lt;/font&gt;" style="rounded=0;whiteSpace=wrap;html=1;strokeColor=#82b366;strokeWidth=1;fillColor=#d5e8d4;" parent="1" vertex="1">
          <mxGeometry x="1350" y="402.5" width="170" height="75" as="geometry" />
        </mxCell>
        <mxCell id="qJTZwnVhEVgrwr9GslrN-67" value="&lt;font style=&quot;font-size: 15px&quot;&gt;新 paddle.save、load&lt;/font&gt;" style="text;html=1;strokeColor=none;fillColor=none;align=center;verticalAlign=middle;whiteSpace=wrap;rounded=0;" parent="1" vertex="1">
          <mxGeometry x="1220" y="240" width="170" height="20" as="geometry" />
        </mxCell>
        <mxCell id="qJTZwnVhEVgrwr9GslrN-69" value="&lt;span style=&quot;color: rgb(0 , 0 , 0) ; font-family: &amp;#34;helvetica&amp;#34; ; font-size: 15px ; font-style: normal ; font-weight: 400 ; letter-spacing: normal ; text-align: center ; text-indent: 0px ; text-transform: none ; word-spacing: 0px ; background-color: rgb(248 , 249 , 250) ; display: inline ; float: none&quot;&gt;paddle save/load 体系&lt;/span&gt;" style="text;whiteSpace=wrap;html=1;" parent="1" vertex="1">
          <mxGeometry x="1220" y="175" width="170" height="30" as="geometry" />
        </mxCell>
        <mxCell id="qJTZwnVhEVgrwr9GslrN-73" value="&lt;span style=&quot;font-size: 16px&quot;&gt;program中的Variable&lt;/span&gt;" style="rounded=1;whiteSpace=wrap;html=1;strokeWidth=1;fillColor=#cce5ff;strokeColor=#36393d;" parent="1" vertex="1">
          <mxGeometry x="320" y="1280" width="120" height="60" as="geometry" />
        </mxCell>
        <mxCell id="qJTZwnVhEVgrwr9GslrN-74" value="&lt;span style=&quot;font-size: 16px&quot;&gt;动态图&lt;br&gt;VarBase&lt;br&gt;&lt;/span&gt;" style="rounded=1;whiteSpace=wrap;html=1;strokeWidth=1;fillColor=#b0e3e6;strokeColor=#0e8088;" parent="1" vertex="1">
          <mxGeometry x="320" y="1400" width="120" height="60" as="geometry" />
        </mxCell>
        <mxCell id="qJTZwnVhEVgrwr9GslrN-76" value="&lt;span style=&quot;font-size: 16px&quot;&gt;scope中的LoDTensor&lt;/span&gt;" style="rounded=1;whiteSpace=wrap;html=1;strokeWidth=1;fillColor=#d0cee2;strokeColor=#56517e;" parent="1" vertex="1">
          <mxGeometry x="480" y="1280" width="120" height="60" as="geometry" />
        </mxCell>
        <mxCell id="qJTZwnVhEVgrwr9GslrN-77" value="" style="rounded=1;whiteSpace=wrap;html=1;strokeWidth=1;fillColor=none;" parent="1" vertex="1">
          <mxGeometry x="640" y="1330" width="470" height="80" as="geometry" />
        </mxCell>
        <mxCell id="qJTZwnVhEVgrwr9GslrN-78" value="&lt;span style=&quot;font-size: 16px&quot;&gt;文件&lt;/span&gt;" style="rounded=1;whiteSpace=wrap;html=1;strokeWidth=1;fillColor=#eeeeee;strokeColor=#36393d;" parent="1" vertex="1">
          <mxGeometry x="1300" y="1425" width="120" height="60" as="geometry" />
        </mxCell>
        <mxCell id="qJTZwnVhEVgrwr9GslrN-79" value="&lt;span style=&quot;font-size: 16px&quot;&gt;numpy.ndarray&lt;/span&gt;" style="rounded=1;whiteSpace=wrap;html=1;strokeWidth=1;fillColor=#cdeb8b;strokeColor=#36393d;" parent="1" vertex="1">
          <mxGeometry x="1620" y="1338.75" width="120" height="60" as="geometry" />
        </mxCell>
        <mxCell id="qJTZwnVhEVgrwr9GslrN-80" value="&lt;span style=&quot;font-size: 16px&quot;&gt;string&lt;/span&gt;" style="rounded=1;whiteSpace=wrap;html=1;strokeWidth=1;fillColor=#ffff88;strokeColor=#36393d;" parent="1" vertex="1">
          <mxGeometry x="990" y="1510" width="120" height="60" as="geometry" />
        </mxCell>
        <mxCell id="qJTZwnVhEVgrwr9GslrN-81" value="&lt;span style=&quot;font-size: 16px&quot;&gt;Program&lt;/span&gt;" style="rounded=1;whiteSpace=wrap;html=1;strokeWidth=1;fillColor=#ffcc99;strokeColor=#36393d;" parent="1" vertex="1">
          <mxGeometry x="320" y="1510" width="120" height="60" as="geometry" />
        </mxCell>
        <mxCell id="qJTZwnVhEVgrwr9GslrN-85" value="" style="endArrow=classic;html=1;strokeColor=#10739e;strokeWidth=2;exitX=1;exitY=0.5;exitDx=0;exitDy=0;entryX=0;entryY=0.5;entryDx=0;entryDy=0;fillColor=#b1ddf0;" parent="1" source="qJTZwnVhEVgrwr9GslrN-73" target="qJTZwnVhEVgrwr9GslrN-76" edge="1">
          <mxGeometry width="50" height="50" relative="1" as="geometry">
            <mxPoint x="440" y="1300" as="sourcePoint" />
            <mxPoint x="490" y="1250" as="targetPoint" />
          </mxGeometry>
        </mxCell>
        <mxCell id="qJTZwnVhEVgrwr9GslrN-87" value="" style="endArrow=classic;html=1;strokeColor=#10739e;strokeWidth=2;entryX=0;entryY=0.5;entryDx=0;entryDy=0;fillColor=#b1ddf0;exitX=1;exitY=0.5;exitDx=0;exitDy=0;" parent="1" source="qJTZwnVhEVgrwr9GslrN-76" target="qJTZwnVhEVgrwr9GslrN-77" edge="1">
          <mxGeometry width="50" height="50" relative="1" as="geometry">
            <mxPoint x="460" y="1410" as="sourcePoint" />
            <mxPoint x="490" y="1320" as="targetPoint" />
          </mxGeometry>
        </mxCell>
        <mxCell id="qJTZwnVhEVgrwr9GslrN-89" value="" style="endArrow=classic;html=1;strokeColor=#10739e;strokeWidth=2;exitX=1;exitY=0.5;exitDx=0;exitDy=0;entryX=0;entryY=0.5;entryDx=0;entryDy=0;fillColor=#b1ddf0;" parent="1" source="qJTZwnVhEVgrwr9GslrN-74" target="qJTZwnVhEVgrwr9GslrN-77" edge="1">
          <mxGeometry width="50" height="50" relative="1" as="geometry">
            <mxPoint x="460" y="1330" as="sourcePoint" />
            <mxPoint x="500" y="1330" as="targetPoint" />
          </mxGeometry>
        </mxCell>
        <mxCell id="qJTZwnVhEVgrwr9GslrN-90" value="" style="endArrow=classic;html=1;strokeColor=#10739e;strokeWidth=2;exitX=1;exitY=0.5;exitDx=0;exitDy=0;entryX=0;entryY=0.5;entryDx=0;entryDy=0;fillColor=#b1ddf0;" parent="1" source="qJTZwnVhEVgrwr9GslrN-81" target="qJTZwnVhEVgrwr9GslrN-80" edge="1">
          <mxGeometry width="50" height="50" relative="1" as="geometry">
            <mxPoint x="470" y="1340" as="sourcePoint" />
            <mxPoint x="510" y="1340" as="targetPoint" />
          </mxGeometry>
        </mxCell>
        <mxCell id="qJTZwnVhEVgrwr9GslrN-91" value="&lt;font style=&quot;font-size: 18px&quot;&gt;type&lt;/font&gt;" style="rounded=0;whiteSpace=wrap;html=1;strokeWidth=1;fillColor=#fad9d5;strokeColor=#ae4132;" parent="1" vertex="1">
          <mxGeometry x="660" y="1340" width="60" height="60" as="geometry" />
        </mxCell>
        <mxCell id="qJTZwnVhEVgrwr9GslrN-92" value="&lt;font style=&quot;font-size: 18px&quot;&gt;name&lt;/font&gt;" style="rounded=0;whiteSpace=wrap;html=1;strokeWidth=1;fillColor=#fad9d5;strokeColor=#ae4132;" parent="1" vertex="1">
          <mxGeometry x="720" y="1340" width="60" height="60" as="geometry" />
        </mxCell>
        <mxCell id="qJTZwnVhEVgrwr9GslrN-93" value="&lt;font style=&quot;font-size: 18px&quot;&gt;shape&lt;/font&gt;" style="rounded=0;whiteSpace=wrap;html=1;strokeWidth=1;fillColor=#fad9d5;strokeColor=#ae4132;" parent="1" vertex="1">
          <mxGeometry x="780" y="1340" width="60" height="60" as="geometry" />
        </mxCell>
        <mxCell id="qJTZwnVhEVgrwr9GslrN-94" value="&lt;font style=&quot;font-size: 18px&quot;&gt;dtype&lt;/font&gt;" style="rounded=0;whiteSpace=wrap;html=1;strokeWidth=1;fillColor=#fad9d5;strokeColor=#ae4132;" parent="1" vertex="1">
          <mxGeometry x="840" y="1340" width="60" height="60" as="geometry" />
        </mxCell>
        <mxCell id="qJTZwnVhEVgrwr9GslrN-95" value="&lt;font style=&quot;font-size: 18px&quot;&gt;extend&lt;/font&gt;" style="rounded=0;whiteSpace=wrap;html=1;strokeWidth=1;fillColor=#fad9d5;strokeColor=#ae4132;" parent="1" vertex="1">
          <mxGeometry x="900" y="1340" width="60" height="60" as="geometry" />
        </mxCell>
        <mxCell id="qJTZwnVhEVgrwr9GslrN-96" value="&lt;span style=&quot;font-size: 18px&quot;&gt;ndarray&lt;/span&gt;" style="rounded=0;whiteSpace=wrap;html=1;strokeWidth=1;fillColor=#cdeb8b;strokeColor=#36393d;" parent="1" vertex="1">
          <mxGeometry x="960" y="1340" width="100" height="60" as="geometry" />
        </mxCell>
        <mxCell id="qJTZwnVhEVgrwr9GslrN-97" value="" style="shape=curlyBracket;whiteSpace=wrap;html=1;rounded=1;strokeWidth=5;direction=west;size=0.5;" parent="1" vertex="1">
          <mxGeometry x="1120" y="1370" width="20" height="170" as="geometry" />
        </mxCell>
        <mxCell id="qJTZwnVhEVgrwr9GslrN-99" value="" style="shape=curlyBracket;whiteSpace=wrap;html=1;rounded=1;strokeWidth=5;direction=east;size=0.5;" parent="1" vertex="1">
          <mxGeometry x="1580" y="1373.75" width="20" height="170" as="geometry" />
        </mxCell>
        <mxCell id="qJTZwnVhEVgrwr9GslrN-100" value="&lt;span style=&quot;font-size: 16px&quot;&gt;string&lt;/span&gt;" style="rounded=1;whiteSpace=wrap;html=1;strokeWidth=1;fillColor=#ffff88;strokeColor=#36393d;" parent="1" vertex="1">
          <mxGeometry x="1620" y="1508.75" width="120" height="60" as="geometry" />
        </mxCell>
        <mxCell id="qJTZwnVhEVgrwr9GslrN-105" value="&lt;font style=&quot;font-size: 18px&quot;&gt;pickle.dump&lt;/font&gt;" style="shape=singleArrow;whiteSpace=wrap;html=1;strokeWidth=2;" parent="1" vertex="1">
          <mxGeometry x="1150" y="1407.5" width="150" height="92.5" as="geometry" />
        </mxCell>
        <mxCell id="qJTZwnVhEVgrwr9GslrN-107" value="&lt;font style=&quot;font-size: 18px&quot;&gt;pickle.load&lt;/font&gt;" style="shape=singleArrow;whiteSpace=wrap;html=1;strokeWidth=2;" parent="1" vertex="1">
          <mxGeometry x="1420" y="1410" width="150" height="92.5" as="geometry" />
        </mxCell>
        <mxCell id="0Mp4NktpAigXA8W8LPm4-1" value="" style="endArrow=classic;html=1;exitX=1;exitY=1;exitDx=0;exitDy=0;strokeWidth=2;fillColor=#fa6800;strokeColor=#C73500;" edge="1" parent="1">
          <mxGeometry width="50" height="50" relative="1" as="geometry">
            <mxPoint x="-9.996991411009077" y="118.9976695296636" as="sourcePoint" />
            <mxPoint x="80" y="119.32" as="targetPoint" />
          </mxGeometry>
        </mxCell>
        <mxCell id="0Mp4NktpAigXA8W8LPm4-3" value="" style="endArrow=classic;startArrow=classic;html=1;strokeWidth=4;exitX=1;exitY=0.5;exitDx=0;exitDy=0;strokeColor=#A50040;fillColor=#d80073;" edge="1" parent="1">
          <mxGeometry width="50" height="50" relative="1" as="geometry">
            <mxPoint x="-10" y="157.31000000000006" as="sourcePoint" />
            <mxPoint x="80" y="157" as="targetPoint" />
          </mxGeometry>
        </mxCell>
        <mxCell id="0Mp4NktpAigXA8W8LPm4-6" value="" style="endArrow=classic;startArrow=classic;html=1;exitX=1;exitY=0.5;exitDx=0;exitDy=0;strokeWidth=2;fillColor=#008a00;strokeColor=#005700;" edge="1" parent="1">
          <mxGeometry width="50" height="50" relative="1" as="geometry">
            <mxPoint x="-10" y="80" as="sourcePoint" />
            <mxPoint x="80" y="80" as="targetPoint" />
          </mxGeometry>
        </mxCell>
        <mxCell id="0Mp4NktpAigXA8W8LPm4-8" value="&lt;font style=&quot;font-size: 16px&quot;&gt;支持save/load双向&lt;/font&gt;" style="text;html=1;align=center;verticalAlign=middle;resizable=0;points=[];autosize=1;" vertex="1" parent="1">
          <mxGeometry x="80" y="70" width="150" height="20" as="geometry" />
        </mxCell>
        <mxCell id="0Mp4NktpAigXA8W8LPm4-9" value="&lt;font style=&quot;font-size: 16px&quot;&gt;单向支持&lt;/font&gt;" style="text;html=1;align=center;verticalAlign=middle;resizable=0;points=[];autosize=1;" vertex="1" parent="1">
          <mxGeometry x="90" y="110" width="80" height="20" as="geometry" />
        </mxCell>
        <mxCell id="0Mp4NktpAigXA8W8LPm4-10" value="&lt;font style=&quot;font-size: 16px&quot;&gt;无法支持&lt;/font&gt;" style="text;html=1;align=center;verticalAlign=middle;resizable=0;points=[];autosize=1;" vertex="1" parent="1">
          <mxGeometry x="90" y="147.5" width="80" height="20" as="geometry" />
        </mxCell>
        <mxCell id="0Mp4NktpAigXA8W8LPm4-12" value="" style="rounded=0;whiteSpace=wrap;html=1;" vertex="1" parent="1">
          <mxGeometry x="540" y="410" width="120" height="60" as="geometry" />
        </mxCell>
      </root>
    </mxGraphModel>
  </diagram>
</mxfile>
